<svg width="24" height="24" viewBox="0 0 24 24" fill="none" xmlns="http://www.w3.org/2000/svg">
<path d="M18.821 20.5H5.179C4.20359 20.4989 3.26844 20.111 2.57872 19.4213C1.88901 18.7316 1.50106 17.7964 1.5 16.821V7.179C1.50106 6.20359 1.88901 5.26844 2.57872 4.57872C3.26844 3.88901 4.20359 3.50106 5.179 3.5H18.821C19.7964 3.50106 20.7316 3.88901 21.4213 4.57872C22.111 5.26844 22.4989 6.20359 22.5 7.179V16.821C22.4989 17.7964 22.111 18.7316 21.4213 19.4213C20.7316 20.111 19.7964 20.4989 18.821 20.5V20.5ZM5.179 4.5C4.46873 4.50079 3.78778 4.7833 3.28554 5.28554C2.7833 5.78778 2.50079 6.46873 2.5 7.179V16.821C2.50079 17.5313 2.7833 18.2122 3.28554 18.7145C3.78778 19.2167 4.46873 19.4992 5.179 19.5H18.821C19.5313 19.4992 20.2122 19.2167 20.7145 18.7145C21.2167 18.2122 21.4992 17.5313 21.5 16.821V7.179C21.4992 6.46873 21.2167 5.78778 20.7145 5.28554C20.2122 4.7833 19.5313 4.50079 18.821 4.5H5.179Z" fill="black"/>
<path d="M11.9999 14.209C11.8711 14.2093 11.7472 14.1598 11.6539 14.071L4.2859 7.028C4.23843 6.98262 4.20036 6.92835 4.17386 6.86826C4.14736 6.80818 4.13296 6.74346 4.13148 6.67781C4.12848 6.54522 4.17827 6.41687 4.2699 6.321C4.36153 6.22512 4.4875 6.16957 4.62009 6.16657C4.75267 6.16357 4.88102 6.21336 4.9769 6.305L11.9999 13.018L19.0229 6.305C19.0704 6.25962 19.1263 6.22405 19.1875 6.2003C19.2488 6.17654 19.3141 6.16509 19.3797 6.16657C19.4454 6.16806 19.5101 6.18246 19.5702 6.20896C19.6302 6.23545 19.6845 6.27352 19.7299 6.321C19.7753 6.36847 19.8108 6.42441 19.8346 6.48564C19.8584 6.54686 19.8698 6.61216 19.8683 6.67781C19.8668 6.74346 19.8524 6.80818 19.8259 6.86826C19.7994 6.92835 19.7614 6.98262 19.7139 7.028L12.3459 14.071C12.2526 14.1598 12.1287 14.2093 11.9999 14.209Z" fill="black"/>
<path d="M4.70021 17.833C4.60053 17.833 4.50313 17.8032 4.42051 17.7475C4.33789 17.6917 4.27381 17.6125 4.23652 17.5201C4.19922 17.4277 4.1904 17.3262 4.2112 17.2287C4.23199 17.1312 4.28144 17.0422 4.35321 16.973L9.89321 11.663C9.98895 11.5713 10.1172 11.5213 10.2498 11.5241C10.3824 11.5269 10.5084 11.5823 10.6002 11.678C10.692 11.7738 10.7419 11.902 10.7391 12.0346C10.7363 12.1672 10.681 12.2933 10.5852 12.385L5.04821 17.694C4.95461 17.7837 4.82984 17.8336 4.70021 17.833V17.833Z" fill="black"/>
<path d="M19.2998 17.832C19.1708 17.832 19.0469 17.7822 18.9538 17.693L13.4158 12.385C13.3683 12.3396 13.3304 12.2853 13.3039 12.2251C13.2775 12.165 13.2632 12.1003 13.2618 12.0346C13.2604 11.969 13.272 11.9037 13.2958 11.8425C13.3197 11.7813 13.3553 11.7254 13.4008 11.678C13.4462 11.6306 13.5005 11.5926 13.5606 11.5662C13.6208 11.5398 13.6855 11.5255 13.7511 11.5241C13.8168 11.5227 13.8821 11.5343 13.9433 11.5581C14.0045 11.5819 14.0603 11.6176 14.1078 11.663L19.6458 16.971C19.7178 17.0401 19.7676 17.1291 19.7886 17.2267C19.8096 17.3242 19.801 17.4259 19.7638 17.5185C19.7265 17.6111 19.6625 17.6904 19.5798 17.7463C19.4971 17.8022 19.3996 17.832 19.2998 17.832V17.832Z" fill="black"/>
</svg>
