<svg width="24" height="24" viewBox="0 0 24 24" fill="none" xmlns="http://www.w3.org/2000/svg">
<path d="M12 1C9.82441 1 7.69767 1.64514 5.88873 2.85383C4.07979 4.06253 2.66989 5.78049 1.83733 7.79048C1.00477 9.80047 0.786929 12.0122 1.21137 14.146C1.6358 16.2798 2.68345 18.2398 4.22183 19.7782C5.76021 21.3166 7.72022 22.3642 9.85401 22.7886C11.9878 23.2131 14.1995 22.9952 16.2095 22.1627C18.2195 21.3301 19.9375 19.9202 21.1462 18.1113C22.3549 16.3023 23 14.1756 23 12C22.9968 9.08359 21.8369 6.28755 19.7747 4.22533C17.7125 2.16312 14.9164 1.00318 12 1V1ZM12 22C10.0222 22 8.08879 21.4135 6.4443 20.3147C4.79981 19.2159 3.51809 17.6541 2.76121 15.8268C2.00433 13.9996 1.8063 11.9889 2.19215 10.0491C2.578 8.10929 3.53041 6.32746 4.92894 4.92893C6.32746 3.53041 8.10929 2.578 10.0491 2.19215C11.9889 1.8063 13.9996 2.00433 15.8268 2.7612C17.6541 3.51808 19.2159 4.79981 20.3147 6.4443C21.4135 8.08879 22 10.0222 22 12C21.9971 14.6513 20.9426 17.1931 19.0679 19.0679C17.1931 20.9426 14.6513 21.9971 12 22V22ZM16.464 6.634C16.1834 6.63737 15.9055 6.68983 15.643 6.789C15.529 6.836 13.241 7.774 12.542 8.079L5.489 10.984C4.662 11.307 4.20501 11.785 4.14701 12.4C4.13067 12.6575 4.18511 12.9146 4.30445 13.1434C4.42379 13.3722 4.60346 13.564 4.824 13.698L4.92101 13.758L5.029 13.796C5.073 13.811 6.12 14.169 7.039 14.445C7.36631 14.5458 7.70655 14.5983 8.049 14.601C8.46948 14.6137 8.88544 14.5114 9.252 14.305L9.322 14.258L9.321 14.302C9.32684 14.5367 9.38371 14.7673 9.48767 14.9778C9.59163 15.1884 9.74018 15.3737 9.92301 15.521C10.593 16.087 12.056 17.044 12.759 17.503C12.909 17.602 13.016 17.671 13.055 17.698C13.6176 18.1262 14.2898 18.3869 14.994 18.45C15.1253 18.4504 15.2561 18.4356 15.384 18.406C15.7515 18.3 16.0774 18.0833 16.3172 17.7853C16.557 17.4874 16.6991 17.1227 16.724 16.741L17.479 12.005L17.677 10.71C17.87 9.456 17.981 8.73 18.004 8.4C18.0351 8.1699 18.0166 7.9358 17.9497 7.71346C17.8827 7.49112 17.769 7.28569 17.616 7.111C17.4681 6.95527 17.2891 6.83235 17.0907 6.75018C16.8922 6.66801 16.6787 6.62843 16.464 6.634V6.634ZM16.491 11.848L15.732 16.613C15.732 16.613 15.672 17.311 15.156 17.433C15.1028 17.4449 15.0485 17.4506 14.994 17.45C14.501 17.3818 14.0339 17.1875 13.638 16.886C13.517 16.795 11.362 15.429 10.573 14.762C10.4925 14.7077 10.4271 14.6338 10.3829 14.5474C10.3387 14.461 10.3171 14.3648 10.3201 14.2677C10.3231 14.1707 10.3506 14.076 10.4 13.9924C10.4495 13.9089 10.5193 13.8393 10.603 13.79C11.6844 12.7989 12.747 11.7874 13.79 10.756C14.026 10.52 14.262 10.08 13.986 10.08C13.6234 10.165 13.286 10.3342 13.001 10.574L8.722 13.457C8.51383 13.5622 8.282 13.6118 8.049 13.601C7.80373 13.5985 7.56015 13.5601 7.326 13.487C6.416 13.214 5.354 12.85 5.354 12.85C5.354 12.85 4.625 12.394 5.869 11.909L12.94 8.996C13.638 8.692 16.005 7.721 16.005 7.721C16.1526 7.6671 16.308 7.63771 16.465 7.634C16.751 7.634 17.057 7.762 17.007 8.328C16.977 8.753 16.734 10.24 16.491 11.848V11.848Z" fill="black"/>
</svg>
