<svg width="24" height="28" viewBox="0 0 24 28" fill="none" xmlns="http://www.w3.org/2000/svg">
<path d="M20.5415 6.48922C20.3643 6.39765 20.1918 6.29726 20.0247 6.18844C19.5386 5.86712 19.093 5.48852 18.6974 5.06078C17.7075 3.9282 17.3379 2.77922 17.2017 1.97477H17.2072C17.0934 1.30703 17.1404 0.875 17.1475 0.875H12.6391V18.3083C12.6391 18.5423 12.6391 18.7737 12.6293 19.0023C12.6293 19.0307 12.6265 19.057 12.6249 19.0876C12.6249 19.1002 12.6249 19.1133 12.6222 19.1264C12.6222 19.1297 12.6222 19.133 12.6222 19.1363C12.5746 19.7618 12.3741 20.366 12.0383 20.8958C11.7024 21.4256 11.2415 21.8648 10.6961 22.1747C10.1276 22.4981 9.48467 22.6677 8.83067 22.6669C6.73012 22.6669 5.0277 20.9541 5.0277 18.8388C5.0277 16.7234 6.73012 15.0106 8.83067 15.0106C9.22829 15.0103 9.62347 15.0728 10.0015 15.196L10.007 10.6055C8.8593 10.4573 7.69334 10.5485 6.58267 10.8734C5.47199 11.1983 4.44071 11.7499 3.55387 12.4934C2.7768 13.1685 2.12351 13.9741 1.6234 14.8739C1.43309 15.202 0.715042 16.5205 0.628089 18.6605C0.573401 19.8751 0.938167 21.1334 1.11207 21.6535V21.6645C1.22145 21.9707 1.64528 23.0158 2.33598 23.8968C2.89294 24.6035 3.55096 25.2243 4.28887 25.7392V25.7283L4.29981 25.7392C6.48239 27.2223 8.90231 27.125 8.90231 27.125C9.32121 27.108 10.7245 27.125 12.3181 26.3698C14.0856 25.5325 15.0918 24.2851 15.0918 24.2851C15.7347 23.5397 16.2459 22.6903 16.6034 21.7733C17.0114 20.7009 17.1475 19.4146 17.1475 18.9005V9.6518C17.2022 9.68461 17.9307 10.1664 17.9307 10.1664C17.9307 10.1664 18.9801 10.8391 20.6175 11.2771C21.7922 11.5888 23.3748 11.6545 23.3748 11.6545V7.17883C22.8203 7.23898 21.6943 7.06398 20.5415 6.48922Z" fill="#200436"/>
</svg>
