<svg width="24" height="24" viewBox="0 0 24 24" fill="none" xmlns="http://www.w3.org/2000/svg">
<g clip-path="url(#clip0_36_16)">
<path d="M12.0008 20.102C11.7008 20.102 4.72184 20.096 2.88584 19.602C2.31404 19.4486 1.79266 19.1474 1.37404 18.7288C0.955414 18.3102 0.654272 17.7888 0.500839 17.217C0.154012 15.3489 -0.0134168 13.452 0.000839085 11.552C-0.013389 9.65172 0.154039 7.75442 0.500839 5.886C0.654119 5.31402 0.955193 4.79243 1.37383 4.37362C1.79246 3.95481 2.31392 3.65352 2.88584 3.5C4.72184 3.008 11.7048 3 12.0008 3C12.2968 3 19.2798 3.006 21.1158 3.5C21.6873 3.65435 22.2084 3.95592 22.6269 4.3746C23.0454 4.79329 23.3467 5.31443 23.5008 5.886C23.8468 7.75454 24.0142 9.65175 24.0008 11.552C24.0142 13.4522 23.8468 15.3495 23.5008 17.218C23.3465 17.7899 23.0447 18.3113 22.6256 18.73C22.2065 19.1487 21.6849 19.4501 21.1128 19.604C19.2798 20.096 12.3008 20.102 12.0008 20.102ZM12.0008 4.002C11.9288 4.002 4.85484 4.008 3.14384 4.466C2.74135 4.57411 2.37436 4.78614 2.07967 5.08083C1.78498 5.37552 1.57295 5.74251 1.46484 6.145C1.14474 7.9293 0.989419 9.73925 1.00084 11.552C0.989419 13.3647 1.14474 15.1747 1.46484 16.959C1.57295 17.3615 1.78498 17.7285 2.07967 18.0232C2.37436 18.3179 2.74135 18.5299 3.14384 18.638C4.85484 19.096 11.9288 19.102 12.0008 19.102C12.0728 19.102 19.1468 19.096 20.8578 18.638C21.2603 18.5299 21.6273 18.3179 21.922 18.0232C22.2167 17.7285 22.4287 17.3615 22.5368 16.959C22.8564 15.1746 23.0117 13.3647 23.0008 11.552C23.0117 9.73927 22.8564 7.92937 22.5368 6.145V6.145C22.4287 5.74251 22.2167 5.37552 21.922 5.08083C21.6273 4.78614 21.2603 4.57411 20.8578 4.466C19.1468 4.008 12.0718 4.002 12.0008 4.002V4.002ZM9.70084 15.502C9.56823 15.502 9.44105 15.4493 9.34729 15.3556C9.25352 15.2618 9.20084 15.1346 9.20084 15.002V8.102C9.20084 8.01423 9.22395 7.92801 9.26783 7.852C9.31172 7.776 9.37484 7.71288 9.45084 7.669C9.52685 7.62511 9.61308 7.60201 9.70084 7.60201C9.78861 7.60201 9.87483 7.62512 9.95084 7.669L15.9258 11.119C16.0018 11.1629 16.065 11.226 16.1088 11.302C16.1527 11.378 16.1758 11.4642 16.1758 11.552C16.1758 11.6398 16.1527 11.726 16.1088 11.802C16.065 11.878 16.0018 11.9411 15.9258 11.985L9.95084 15.435C9.87483 15.4789 9.78861 15.502 9.70084 15.502ZM10.2008 8.968V14.136L14.6758 11.552L10.2008 8.968Z" fill="black"/>
</g>
<defs>
<clipPath id="clip0_36_16">
<rect width="24" height="24" fill="white"/>
</clipPath>
</defs>
</svg>
