<svg width="28" height="28" viewBox="0 0 28 28" fill="none" xmlns="http://www.w3.org/2000/svg">
<g clip-path="url(#clip0_29_33)">
<path d="M3.76006 0.559998C1.99979 0.559998 0.560059 1.99973 0.560059 3.76V24.24C0.560059 26.0003 1.99979 27.44 3.76006 27.44H24.2401C26.0003 27.44 27.4401 26.0003 27.4401 24.24V3.76C27.4401 1.99973 26.0003 0.559998 24.2401 0.559998H3.76006ZM3.76006 1.84H24.2401C25.3099 1.84 26.1601 2.69019 26.1601 3.76V24.24C26.1601 25.3098 25.3099 26.16 24.2401 26.16H3.76006C2.69025 26.16 1.84006 25.3098 1.84006 24.24V3.76C1.84006 2.69019 2.69025 1.84 3.76006 1.84ZM14.6676 4.4C14.498 4.40001 14.3355 4.46728 14.2155 4.58703C14.0955 4.70678 14.0279 4.86923 14.0276 5.03875C14.0276 5.03875 14.0205 8.15888 14.0138 11.2862C14.0104 12.8499 14.0063 14.4152 14.0038 15.5937C14.0013 16.7723 14.0001 17.518 14.0001 17.58C14.0001 18.7418 12.945 19.6912 11.7426 19.6912C10.5497 19.6912 9.59756 18.7378 9.59756 17.545C9.59756 16.3522 10.5497 15.4 11.7426 15.4C11.783 15.4 11.8644 15.4133 12.0038 15.43C12.0937 15.4408 12.1849 15.4324 12.2713 15.4053C12.3577 15.3782 12.4374 15.3331 12.5051 15.273C12.5728 15.2129 12.6269 15.1391 12.664 15.0564C12.7011 14.9738 12.7202 14.8843 12.7201 14.7937V12.105C12.72 11.9422 12.658 11.7855 12.5465 11.6668C12.435 11.5482 12.2825 11.4764 12.1201 11.4662C12.0203 11.46 11.8948 11.4475 11.7426 11.4475C8.38286 11.4475 5.64506 14.1853 5.64506 17.545C5.64506 20.9047 8.38286 23.6425 11.7426 23.6425C15.1022 23.6425 17.8401 20.9047 17.8401 17.545V11.7537C18.771 12.4983 19.9313 12.97 21.2126 12.97C21.3873 12.97 21.5535 12.9596 21.7126 12.945C21.8715 12.9303 22.0192 12.8568 22.1267 12.7389C22.2343 12.6209 22.2938 12.4671 22.2938 12.3075V9.31875C22.2939 9.15695 22.2327 9.00111 22.1226 8.8826C22.0124 8.7641 21.8614 8.6917 21.7001 8.68C19.6875 8.53561 18.0832 6.96782 17.8738 4.97375C17.8574 4.81639 17.7833 4.67068 17.6658 4.56472C17.5483 4.45877 17.3958 4.40009 17.2376 4.4H14.6676ZM15.3063 5.68H16.7663C17.2314 7.79117 18.8812 9.40122 21.0138 9.805V11.6387C19.6449 11.5692 18.4426 10.8864 17.7351 9.81C17.6594 9.69481 17.5485 9.60712 17.419 9.55999C17.2895 9.51285 17.1482 9.50878 17.0162 9.54839C16.8842 9.58799 16.7685 9.66915 16.6863 9.7798C16.6041 9.89045 16.5598 10.0247 16.5601 10.1625V17.545C16.5601 20.2128 14.4105 22.3625 11.7426 22.3625C9.07473 22.3625 6.92506 20.2128 6.92506 17.545C6.92506 14.9847 8.92235 12.9524 11.4401 12.7887V14.1812C9.70336 14.3429 8.31756 15.7678 8.31756 17.545C8.31756 19.4293 9.85826 20.9712 11.7426 20.9712C13.6173 20.9712 15.2801 19.4954 15.2801 17.58C15.2801 17.6113 15.2812 16.7748 15.2838 15.5962C15.2863 14.4177 15.2904 12.8524 15.2938 11.2887C15.2998 8.48113 15.3051 6.22349 15.3063 5.68Z" fill="#7B608F"/>
</g>
<defs>
<clipPath id="clip0_29_33">
<rect width="28" height="28" fill="white"/>
</clipPath>
</defs>
</svg>
