<svg width="29" height="22" viewBox="0 0 29 22" fill="none" xmlns="http://www.w3.org/2000/svg">
<g clip-path="url(#clip0_29_37)">
<path d="M14.6174 0.76001C10.3924 0.76001 6.42492 1.08001 4.31242 1.52751C2.90492 1.84751 1.68742 2.80751 1.43242 4.28001C1.17742 5.81501 0.919922 8.12001 0.919922 11C0.919922 13.88 1.17492 16.12 1.49492 17.72C1.75242 19.1275 2.96742 20.1525 4.37492 20.4725C6.61742 20.92 10.4549 21.24 14.6799 21.24C18.9049 21.24 22.7424 20.92 24.9824 20.4725C26.3924 20.1525 27.6074 19.1925 27.8624 17.72C28.1199 16.12 28.4399 13.8175 28.5024 10.9375C28.5024 8.05751 28.1824 5.75251 27.8624 4.15251C27.6074 2.74501 26.3924 1.72001 24.9824 1.40001C22.7424 1.08001 18.8399 0.76001 14.6174 0.76001ZM14.6174 2.04001C19.2249 2.04001 22.9349 2.42251 24.7274 2.74251C25.6874 3.00001 26.4549 3.64001 26.5824 4.47251C26.9674 6.52001 27.2224 8.69751 27.2224 10.9375C27.1599 13.6875 26.8399 15.9275 26.5824 17.5275C26.3924 18.7425 25.1124 19.1275 24.7274 19.2575C22.4224 19.705 18.5824 20.0225 14.7424 20.0225C10.9024 20.0225 6.99992 19.7675 4.75992 19.2575C3.79992 19 3.03242 18.36 2.90492 17.5275C2.39242 15.735 2.19992 13.3675 2.19992 11C2.19992 8.05501 2.45742 5.88001 2.71242 4.53751C2.90492 3.32001 4.24742 2.93501 4.56742 2.80751C6.67992 2.36001 10.5849 2.04001 14.6174 2.04001ZM11.1599 5.88001V16.12L20.1199 11L11.1599 5.88001ZM12.4399 8.05751L17.5599 11L12.4399 13.9425V8.05751Z" fill="#7B608F"/>
</g>
<defs>
<clipPath id="clip0_29_37">
<rect width="29" height="22" fill="white"/>
</clipPath>
</defs>
</svg>
