<svg width="24" height="24" viewBox="0 0 24 24" fill="none" xmlns="http://www.w3.org/2000/svg">
<path d="M21.938 7.71C21.9207 6.89214 21.7665 6.08296 21.482 5.316C21.2449 4.67704 20.8693 4.09852 20.382 3.622C19.9039 3.13388 19.3232 2.75815 18.682 2.522C17.9154 2.23737 17.1065 2.08323 16.289 2.066C15.185 2.012 14.817 2 12 2C9.183 2 8.815 2.012 7.71 2.062C6.89214 2.07933 6.08296 2.23346 5.316 2.518C4.67704 2.75509 4.09852 3.13075 3.622 3.618C3.13388 4.09614 2.75815 4.67682 2.522 5.318C2.23611 6.08404 2.08063 6.89257 2.062 7.71C2.012 8.814 2 9.182 2 12C2 14.818 2.012 15.186 2.062 16.29C2.07933 17.1079 2.23346 17.917 2.518 18.684C2.75509 19.323 3.13075 19.9015 3.618 20.378C4.09614 20.8661 4.67682 21.2419 5.318 21.478C6.08459 21.7626 6.89346 21.9168 7.711 21.934C8.811 21.984 9.183 21.996 12.001 21.996C14.819 21.996 15.187 21.984 16.291 21.934C17.1089 21.9167 17.918 21.7625 18.685 21.478C19.3208 21.2318 19.8983 20.8556 20.3804 20.3734C20.8626 19.8913 21.2388 19.3138 21.485 18.678C21.7696 17.9114 21.9238 17.1025 21.941 16.285C21.991 15.185 22.003 14.813 22.003 11.995C22.003 9.177 21.988 8.814 21.938 7.71ZM20.938 16.244C20.9255 16.9531 20.7944 17.6552 20.55 18.321C20.3541 18.8271 20.0548 19.2868 19.6712 19.6706C19.2875 20.0544 18.828 20.3539 18.322 20.55C17.6558 20.7943 16.9535 20.9254 16.244 20.938C15.159 20.988 14.8 21 12 21C9.2 21 8.841 20.988 7.756 20.938C7.04686 20.9255 6.34481 20.7944 5.679 20.55C5.1688 20.3619 4.70742 20.0615 4.329 19.671C3.93874 19.2928 3.63835 18.8318 3.45 18.322C3.20571 17.6558 3.07457 16.9535 3.062 16.244C3.012 15.159 3 14.8 3 12C3 9.2 3.012 8.841 3.062 7.756C3.07445 7.04686 3.2056 6.34481 3.45 5.679C3.6381 5.1688 3.93851 4.70742 4.329 4.329C4.70722 3.93874 5.16822 3.63835 5.678 3.45C6.34419 3.20571 7.04654 3.07457 7.756 3.062C8.842 3.012 9.205 3 12 3C14.795 3 15.158 3.012 16.244 3.062C16.9531 3.07445 17.6552 3.2056 18.321 3.45C18.8312 3.6381 19.2926 3.93851 19.671 4.329C20.0613 4.70722 20.3616 5.16822 20.55 5.678C20.7943 6.34419 20.9254 7.04654 20.938 7.756C20.988 8.841 21 9.2 21 12C21 14.8 20.988 15.159 20.938 16.244Z" fill="black"/>
<path d="M17.581 5.46698C17.3924 5.46678 17.208 5.52253 17.0511 5.62717C16.8942 5.73181 16.7719 5.88064 16.6997 6.05482C16.6274 6.229 16.6085 6.4207 16.6452 6.60566C16.682 6.79061 16.7727 6.96051 16.9061 7.09385C17.0394 7.22719 17.2093 7.31798 17.3943 7.35472C17.5792 7.39146 17.7709 7.3725 17.9451 7.30025C18.1193 7.22799 18.2681 7.10569 18.3728 6.94881C18.4774 6.79194 18.5332 6.60755 18.533 6.41898C18.5324 6.16666 18.432 5.92482 18.2535 5.7464C18.0751 5.56798 17.8333 5.46751 17.581 5.46698Z" fill="black"/>
<path d="M11.9998 7.073C11.0253 7.073 10.0727 7.36196 9.26246 7.90335C8.45222 8.44473 7.82071 9.21423 7.4478 10.1145C7.07489 11.0148 6.97732 12.0055 7.16743 12.9612C7.35754 13.917 7.82679 14.7949 8.51584 15.4839C9.20489 16.173 10.0828 16.6422 11.0385 16.8323C11.9943 17.0224 12.9849 16.9249 13.8852 16.552C14.7855 16.179 15.555 15.5475 16.0964 14.7373C16.6378 13.9271 16.9268 12.9745 16.9268 12C16.9254 10.6937 16.4059 9.44125 15.4822 8.51754C14.5585 7.59384 13.3061 7.07432 11.9998 7.073ZM11.9998 15.927C11.2231 15.927 10.4638 15.6967 9.81803 15.2652C9.17224 14.8337 8.66891 14.2204 8.37168 13.5028C8.07446 12.7852 7.99669 11.9956 8.14821 11.2339C8.29974 10.4721 8.67375 9.77239 9.22295 9.22319C9.77215 8.67399 10.4719 8.29998 11.2336 8.14845C11.9954 7.99693 12.785 8.0747 13.5026 8.37192C14.2201 8.66915 14.8334 9.17248 15.2649 9.81827C15.6964 10.4641 15.9268 11.2233 15.9268 12C15.9254 13.0411 15.5113 14.0392 14.7751 14.7753C14.0389 15.5115 13.0409 15.9257 11.9998 15.927Z" fill="black"/>
</svg>
