<svg width="26" height="22" viewBox="0 0 26 22" fill="none" xmlns="http://www.w3.org/2000/svg">
<path d="M4.0168 21.3251C2.98624 21.3251 2.11591 20.9704 1.4058 20.2611C0.696464 19.5509 0.341797 18.6806 0.341797 17.6501V4.35005C0.341797 3.31949 0.696464 2.44916 1.4058 1.73905C2.11591 1.02972 2.98624 0.675049 4.0168 0.675049H21.9835C23.014 0.675049 23.8844 1.02972 24.5945 1.73905C25.3038 2.44916 25.6585 3.31949 25.6585 4.35005V17.6501C25.6585 18.6806 25.3038 19.5509 24.5945 20.2611C23.8844 20.9704 23.014 21.3251 21.9835 21.3251H4.0168ZM13.0001 13.4209L4.0168 7.58755V17.6501H21.9835V7.58755L13.0001 13.4209ZM13.0001 10.1834L21.9835 4.35005H4.0168L13.0001 10.1834ZM4.0168 7.58755V4.35005V17.6501V7.58755Z" fill="#200436"/>
</svg>
