<svg width="32" height="32" viewBox="0 0 32 32" fill="none" xmlns="http://www.w3.org/2000/svg">
<mask id="mask0_29_21" style="mask-type:alpha" maskUnits="userSpaceOnUse" x="0" y="0" width="32" height="32">
<rect width="32" height="32" fill="#D9D9D9"/>
</mask>
<g mask="url(#mask0_29_21)">
<path d="M5.7335 26C5.06683 26 4.50016 25.7667 4.0335 25.3C3.56683 24.8333 3.3335 24.2667 3.3335 23.6V8.4C3.3335 7.73333 3.56683 7.16667 4.0335 6.7C4.50016 6.23333 5.06683 6 5.7335 6H26.2668C26.9335 6 27.5002 6.23333 27.9668 6.7C28.4335 7.16667 28.6668 7.73333 28.6668 8.4V23.6C28.6668 24.2667 28.4335 24.8333 27.9668 25.3C27.5002 25.7667 26.9335 26 26.2668 26H5.7335ZM16.0002 16.7333L5.3335 9.93333V23.6C5.3335 23.7111 5.37261 23.8058 5.45083 23.884C5.52816 23.9613 5.62239 24 5.7335 24H26.2668C26.3779 24 26.4726 23.9613 26.5508 23.884C26.6282 23.8058 26.6668 23.7111 26.6668 23.6V9.93333L16.0002 16.7333ZM16.0002 14.6667L26.4668 8H5.5335L16.0002 14.6667ZM5.3335 9.93333V8V23.6C5.3335 23.7111 5.37261 23.8058 5.45083 23.884C5.52816 23.9613 5.62239 24 5.7335 24H5.3335V23.6V9.93333Z" fill="#200436"/>
</g>
</svg>
