<svg width="32" height="32" viewBox="0 0 32 32" fill="none" xmlns="http://www.w3.org/2000/svg">
<mask id="mask0_29_62" style="mask-type:alpha" maskUnits="userSpaceOnUse" x="0" y="0" width="32" height="32">
<rect width="32" height="32" fill="#D9D9D9"/>
</mask>
<g mask="url(#mask0_29_62)">
<path d="M6.16667 25.3333C5.54444 25.3333 5.028 25.128 4.61733 24.7173C4.20578 24.3058 4 23.7889 4 23.1667V8.83332C4 8.2111 4.20578 7.69466 4.61733 7.28399C5.028 6.87243 5.54444 6.66666 6.16667 6.66666H25.8333C26.4556 6.66666 26.9724 6.87243 27.384 7.28399C27.7947 7.69466 28 8.2111 28 8.83332V23.1667C28 23.7889 27.7947 24.3058 27.384 24.7173C26.9724 25.128 26.4556 25.3333 25.8333 25.3333H6.16667ZM16 16.1667L5.33333 9.16666V23.1667C5.33333 23.4111 5.41111 23.6111 5.56667 23.7667C5.72222 23.9222 5.92222 24 6.16667 24H25.8333C26.0778 24 26.2778 23.9222 26.4333 23.7667C26.5889 23.6111 26.6667 23.4111 26.6667 23.1667V9.16666L16 16.1667ZM16 14.6667L26.2667 7.99999H5.73333L16 14.6667ZM5.33333 9.16666V7.99999V23.1667C5.33333 23.4111 5.41111 23.6111 5.56667 23.7667C5.72222 23.9222 5.92222 24 6.16667 24H5.33333V23.1667V9.16666Z" fill="#7B608F"/>
</g>
</svg>
