<svg width="24" height="24" viewBox="0 0 24 24" fill="none" xmlns="http://www.w3.org/2000/svg">
<path d="M10.8066 19.8034C9.53182 19.8034 8.30924 19.297 7.40782 18.3956C6.50641 17.4942 6 16.2716 6 14.9968C6 13.722 6.50641 12.4995 7.40782 11.598C8.30924 10.6966 9.53182 10.1902 10.8066 10.1902C10.8944 10.1898 10.9791 10.2229 11.0434 10.2827C11.1077 10.3424 11.1468 10.4244 11.1529 10.512V12.9578C11.1466 13.0411 11.1107 13.1194 11.0517 13.1784C10.9926 13.2375 10.9144 13.2734 10.8311 13.2796C10.4903 13.2763 10.1563 13.3743 9.87132 13.5613C9.58639 13.7482 9.36345 14.0156 9.2308 14.3295C9.09815 14.6434 9.06178 14.9896 9.12632 15.3242C9.19085 15.6589 9.35338 15.9667 9.59325 16.2088C9.83313 16.4508 10.1395 16.6161 10.4735 16.6837C10.8076 16.7513 11.1541 16.718 11.4692 16.5882C11.7843 16.4584 12.0537 16.2379 12.2432 15.9546C12.4327 15.6714 12.5337 15.3383 12.5335 14.9975C12.5328 14.9868 12.5328 14.976 12.5335 14.9653V5.32181C12.5335 5.23646 12.5674 5.15461 12.6277 5.09426C12.6881 5.03391 12.7699 5 12.8553 5H15.2927C15.3781 5 15.4599 5.03391 15.5203 5.09426C15.5806 5.15461 15.6145 5.23646 15.6145 5.32181C15.6143 6.13329 15.9362 6.91167 16.5094 7.48607C17.0826 8.06047 17.8603 8.38395 18.6717 8.38548C18.7571 8.38548 18.839 8.41939 18.8993 8.47974C18.9597 8.54009 18.9936 8.62195 18.9936 8.7073L19 11.1145C18.9971 11.2019 18.9609 11.2849 18.8988 11.3465C18.8367 11.4081 18.7534 11.4437 18.666 11.4459C17.5946 11.4481 16.5418 11.1665 15.6145 10.6298V14.9994C15.6125 16.2736 15.1051 17.4949 14.2038 18.3955C13.3025 19.2961 12.0808 19.8024 10.8066 19.8034ZM10.5093 10.8474C9.7009 10.9055 8.92711 11.1984 8.28288 11.6902C7.63865 12.1819 7.15201 12.851 6.8827 13.6154C6.61339 14.3798 6.57312 15.2062 6.76685 15.9931C6.96057 16.7801 7.37986 17.4933 7.97324 18.0454C8.56661 18.5974 9.30826 18.9641 10.1071 19.1006C10.906 19.2371 11.7273 19.1373 12.4703 18.8136C13.2133 18.4898 13.8456 17.9562 14.2896 17.2782C14.7335 16.6002 14.9699 15.8073 14.9696 14.9968V10.037C14.9696 9.97786 14.9858 9.91981 15.0166 9.86928C15.0474 9.81875 15.0916 9.77769 15.1442 9.75062C15.1968 9.72354 15.2559 9.7115 15.3149 9.71582C15.3739 9.72013 15.4306 9.74064 15.4787 9.77508C16.321 10.3823 17.3196 10.7354 18.3564 10.7927L18.3525 9.01624C17.484 8.93991 16.6702 8.55998 16.054 7.94319C15.4378 7.32641 15.0586 6.51221 14.9831 5.64363H13.1758V14.9968C13.1765 15.0082 13.1765 15.0196 13.1758 15.0309C13.1693 15.484 13.0326 15.9257 12.7821 16.3033C12.5317 16.6809 12.1779 16.9785 11.7631 17.1607C11.3482 17.3429 10.8897 17.4021 10.4422 17.331C9.99465 17.26 9.57699 17.0618 9.23893 16.7601C8.90087 16.4584 8.65667 16.0658 8.53543 15.6292C8.41418 15.1926 8.421 14.7304 8.55507 14.2975C8.68914 13.8647 8.94482 13.4795 9.29163 13.1879C9.63844 12.8963 10.0618 12.7105 10.5112 12.6527L10.5093 10.8474Z" fill="black" stroke="black" stroke-width="0.3" stroke-linejoin="round"/>
<path d="M22.5 12C22.5 17.799 17.799 22.5 12 22.5C6.20101 22.5 1.5 17.799 1.5 12C1.5 6.20101 6.20101 1.5 12 1.5C17.799 1.5 22.5 6.20101 22.5 12Z" stroke="black"/>
</svg>
